<?xml version="1.0" encoding="UTF-8" standalone="no"?>
<!DOCTYPE svg PUBLIC "-//W3C//DTD SVG 1.1//EN" "http://www.w3.org/Graphics/SVG/1.1/DTD/svg11.dtd">
<svg version="1.1" xmlns="http://www.w3.org/2000/svg" xmlns:xlink="http://www.w3.org/1999/xlink" preserveAspectRatio="xMidYMid meet" viewBox="0 0 640 640" width="640" height="640"><defs><path d="M588.08 372.06C598.24 509.78 468.02 640 320.14 640C172.26 640 39.51 527.56 52.21 372.06C64.9 216.57 172.26 0 320.14 0C468.02 0 577.92 234.34 588.08 372.06Z" id="a2WNg52niM"></path><path d="M258.24 212.16C258.24 239.21 236.27 261.18 209.22 261.18C182.16 261.18 160.2 239.21 160.2 212.16C160.2 185.1 182.16 163.14 209.22 163.14C236.27 163.14 258.24 185.1 258.24 212.16Z" id="a2z2iGaKcq"></path><path d="M538.63 297.45C538.63 325.59 515.78 348.43 487.65 348.43C459.51 348.43 436.67 325.59 436.67 297.45C436.67 269.31 459.51 246.47 487.65 246.47C515.78 246.47 538.63 269.31 538.63 297.45Z" id="a5BmqhXBYH"></path><path d="M247.45 463.14C247.45 498.85 218.46 527.84 182.75 527.84C147.03 527.84 118.04 498.85 118.04 463.14C118.04 427.43 147.03 398.43 182.75 398.43C218.46 398.43 247.45 427.43 247.45 463.14Z" id="b3JJFhiEmk"></path><path d="M342.03 1.72L352.75 3.81L363.3 6.7L373.7 10.34L383.92 14.7L393.96 19.76L403.82 25.47L413.49 31.82L422.97 38.77L432.24 46.28L440.03 53.2L439.28 54.31L437.43 56.72L435.41 59.09L433.22 61.41L430.86 63.68L428.34 65.89L425.67 68.05L422.85 70.15L419.87 72.18L416.76 74.16L413.5 76.07L410.1 77.92L406.58 79.69L402.92 81.39L399.15 83.03L395.25 84.58L391.24 86.06L387.11 87.46L382.88 88.77L378.55 90.01L374.12 91.15L369.59 92.21L364.97 93.18L360.27 94.05L355.48 94.83L350.61 95.51L345.67 96.1L340.66 96.58L335.59 96.96L330.45 97.23L325.25 97.4L320 97.45L314.75 97.4L309.55 97.23L304.41 96.96L299.34 96.58L294.33 96.1L289.39 95.51L284.52 94.83L279.73 94.05L275.03 93.18L270.41 92.21L265.88 91.15L261.45 90.01L257.12 88.77L252.89 87.46L248.76 86.06L244.75 84.58L240.85 83.03L237.08 81.39L233.42 79.69L229.9 77.92L226.5 76.07L223.24 74.16L220.13 72.18L217.15 70.15L214.33 68.05L211.66 65.89L209.14 63.68L206.78 61.41L204.59 59.09L202.57 56.72L200.72 54.31L199.05 51.85L198.86 51.53L199.45 50.98L208.46 43.36L217.68 36.27L227.1 29.73L236.71 23.77L246.52 18.41L256.52 13.68L266.69 9.61L277.05 6.22L287.58 3.54L298.27 1.59L309.13 0.4L320.14 0L331.16 0.43L342.03 1.72Z" id="a65pBgWqEz"></path><path d="M476.08 435.88C476.08 464.02 453.23 486.86 425.1 486.86C396.96 486.86 374.12 464.02 374.12 435.88C374.12 407.75 396.96 384.9 425.1 384.9C453.23 384.9 476.08 407.75 476.08 435.88Z" id="b2O5F6evPH"></path></defs><g><g><g><use xlink:href="#a2WNg52niM" opacity="1" fill="#fff6de" fill-opacity="1"></use></g><g><use xlink:href="#a2z2iGaKcq" opacity="1" fill="#9ccd83" fill-opacity="1"></use></g><g><use xlink:href="#a5BmqhXBYH" opacity="1" fill="#9ccd83" fill-opacity="1"></use></g><g><use xlink:href="#b3JJFhiEmk" opacity="1" fill="#9ccd83" fill-opacity="1"></use></g><g><use xlink:href="#a65pBgWqEz" opacity="1" fill="#e1e1e1" fill-opacity="1"></use></g><g><use xlink:href="#b2O5F6evPH" opacity="1" fill="#9ccd83" fill-opacity="1"></use></g></g></g></svg>