<?xml version="1.0" encoding="UTF-8" standalone="no"?>
<!DOCTYPE svg PUBLIC "-//W3C//DTD SVG 1.1//EN" "http://www.w3.org/Graphics/SVG/1.1/DTD/svg11.dtd">
<svg version="1.1" xmlns="http://www.w3.org/2000/svg" xmlns:xlink="http://www.w3.org/1999/xlink" preserveAspectRatio="xMidYMid meet" viewBox="0 0 640 640" width="640" height="640"><defs><path d="M105.13 0L165.13 0L165.13 640L105.13 640L105.13 0Z" id="bmg0NxMW1"></path><path d="M60.62 467.06L436.73 467.06L436.73 527.06L60.62 527.06L60.62 467.06Z" id="c7SU67YxU"></path><path d="M60.62 370.2L436.73 370.2L436.73 430.2L60.62 430.2L60.62 370.2Z" id="eaPN2fXFh"></path><path d="M165.13 0L437.51 0L437.51 60L165.13 60L165.13 0Z" id="diF7VQsZ4"></path><path d="M165.13 223.73L437.51 223.73L437.51 283.73L165.13 283.73L165.13 223.73Z" id="aXnXJxaoT"></path><path d="M449.14 0.47L454.86 1.05L460.51 1.86L466.09 2.88L471.59 4.13L477 5.58L482.33 7.24L487.57 9.1L492.71 11.16L497.75 13.41L502.68 15.84L507.51 18.47L512.22 21.27L516.81 24.24L521.27 27.39L525.61 30.7L529.81 34.17L533.88 37.79L537.81 41.57L541.58 45.49L545.21 49.56L548.68 53.77L551.99 58.1L555.13 62.57L558.11 67.16L560.91 71.87L563.53 76.69L565.97 81.63L568.22 86.67L570.28 91.81L572.14 97.04L573.8 102.37L575.25 107.79L576.49 113.29L577.52 118.86L578.32 124.52L578.91 130.23L579.26 136.02L579.38 141.86L579.26 147.71L578.91 153.49L578.32 159.21L577.52 164.86L576.49 170.44L575.25 175.94L573.8 181.35L572.14 186.68L570.28 191.92L568.22 197.06L565.97 202.1L563.53 207.03L560.91 211.86L558.11 216.57L555.13 221.16L551.99 225.62L548.68 229.96L545.21 234.16L541.58 238.23L537.81 242.16L533.88 245.93L529.81 249.56L525.61 253.03L521.27 256.34L516.81 259.48L512.22 262.46L507.51 265.26L502.68 267.88L497.75 270.32L492.71 272.57L487.57 274.63L482.33 276.49L477 278.15L471.59 279.6L466.09 280.84L460.51 281.87L454.86 282.67L449.14 283.25L443.36 283.61L437.51 283.73L437.51 223.73L440.89 223.66L444.22 223.45L447.52 223.12L450.78 222.65L454 222.06L457.18 221.34L460.3 220.51L463.38 219.55L466.4 218.48L469.37 217.29L472.27 215.99L475.12 214.58L477.9 213.07L480.62 211.45L483.27 209.74L485.85 207.92L488.35 206.01L490.78 204.01L493.12 201.92L495.39 199.74L497.57 197.47L499.66 195.13L501.66 192.7L503.57 190.2L505.39 187.62L507.1 184.97L508.72 182.25L510.23 179.47L511.64 176.62L512.94 173.71L514.13 170.75L515.2 167.73L516.16 164.65L517 161.53L517.71 158.35L518.3 155.13L518.77 151.87L519.1 148.57L519.31 145.23L519.38 141.86L519.31 138.49L519.1 135.15L518.77 131.85L518.3 128.59L517.71 125.37L517 122.2L516.16 119.07L515.2 116L514.13 112.98L512.94 110.01L511.64 107.1L510.23 104.26L508.72 101.47L507.1 98.75L505.39 96.11L503.57 93.53L501.66 91.03L499.66 88.6L497.57 86.25L495.39 83.99L493.12 81.81L490.78 79.72L488.35 77.71L485.85 75.8L483.27 73.99L480.62 72.27L477.9 70.66L475.12 69.14L472.27 67.74L469.37 66.44L466.4 65.25L463.38 64.18L460.3 63.22L457.18 62.38L454 61.66L450.78 61.07L447.52 60.61L444.22 60.27L440.89 60.07L437.51 60L437.51 0L443.36 0.12L449.14 0.47Z" id="a46iR7Ellp"></path></defs><g><g><g><use xlink:href="#bmg0NxMW1" opacity="1" fill="currentColor" fill-opacity="1"></use></g><g><use xlink:href="#c7SU67YxU" opacity="1" fill="currentColor" fill-opacity="1"></use></g><g><use xlink:href="#eaPN2fXFh" opacity="1" fill="currentColor" fill-opacity="1"></use></g><g><use xlink:href="#diF7VQsZ4" opacity="1" fill="currentColor" fill-opacity="1"></use></g><g><use xlink:href="#aXnXJxaoT" opacity="1" fill="currentColor" fill-opacity="1"></use></g><g><use xlink:href="#a46iR7Ellp" opacity="1" fill="currentColor" fill-opacity="1"></use></g></g></g></svg>